<?xml version="1.0" encoding="UTF-8"?>
<!DOCTYPE svg PUBLIC "-//W3C//DTD SVG 1.1//EN" "http://www.w3.org/Graphics/SVG/1.1/DTD/svg11.dtd">
<svg xmlns="http://www.w3.org/2000/svg" version="1.1" width="921px" height="921px" style="shape-rendering:geometricPrecision; text-rendering:geometricPrecision; image-rendering:optimizeQuality; fill-rule:evenodd; clip-rule:evenodd" xmlns:xlink="http://www.w3.org/1999/xlink">
<g><path style="opacity:0.948" fill="#d90403" d="M 422.5,11.5 C 434.186,11.1678 445.852,11.5011 457.5,12.5C 464.366,30.9313 470.533,49.598 476,68.5C 484.036,50.7609 492.87,33.4276 502.5,16.5C 503.833,16.1667 505.167,15.8333 506.5,15.5C 542.426,20.9763 577.092,30.8096 610.5,45C 613.115,45.7946 615.115,47.2946 616.5,49.5C 614.775,55.279 612.275,60.6123 609,65.5C 594.22,59.2777 579.22,53.6111 564,48.5C 563.228,48.6448 562.561,48.9781 562,49.5C 561.358,51.7619 560.525,53.9285 559.5,56C 573.656,60.9406 587.656,66.274 601.5,72C 601.957,72.414 602.291,72.914 602.5,73.5C 600.455,79.1396 598.121,84.6396 595.5,90C 581.774,84.7012 567.774,79.8678 553.5,75.5C 552.874,80.2108 551.541,84.7108 549.5,89C 564.747,93.853 579.414,99.853 593.5,107C 591.391,112.497 589.391,117.997 587.5,123.5C 575.181,119.114 562.848,114.614 550.5,110C 539.917,106.528 529.251,103.361 518.5,100.5C 518.167,99.8333 517.833,99.1667 517.5,98.5C 523.003,74.8108 528.169,51.1441 533,27.5C 516.401,48.6109 501.567,70.9443 488.5,94.5C 487.5,94.8333 486.5,95.1667 485.5,95.5C 476.876,94.2411 468.209,93.4078 459.5,93C 458.584,92.6258 457.75,92.1258 457,91.5C 447.472,64.2782 435.639,38.1115 421.5,13C 422.056,12.6174 422.389,12.1174 422.5,11.5 Z"/></g>
<g><path style="opacity:0.961" fill="#da0906" d="M 381.5,14.5 C 395.33,12.9151 408.33,15.4151 420.5,22C 434.457,35.7745 437.957,51.9412 431,70.5C 425.719,82.4097 416.886,90.5763 404.5,95C 389.208,100.013 373.541,101.68 357.5,100C 349.545,98.5783 342.712,95.0783 337,89.5C 337.851,95.5726 339.351,101.573 341.5,107.5C 331.397,111.594 321.064,115.428 310.5,119C 295.055,125.73 279.722,132.397 264.5,139C 253.049,115.931 241.216,93.0978 229,70.5C 228.251,69.365 228.417,68.365 229.5,67.5C 241.335,61.1662 253.502,55.4996 266,50.5C 274.443,68.4016 282.11,86.7349 289,105.5C 304.373,99.2656 319.873,93.4323 335.5,88C 323.292,73.382 321.459,57.5486 330,40.5C 338.151,29.9991 348.651,22.8325 361.5,19C 368.233,17.1467 374.899,15.6467 381.5,14.5 Z M 376.5,34.5 C 393.134,32.629 401.467,40.129 401.5,57C 400.246,76.8119 389.913,84.1452 370.5,79C 362.822,72.9697 359.155,64.9697 359.5,55C 359.937,43.7366 365.604,36.9033 376.5,34.5 Z"/></g>
<g><path style="opacity:0.854" fill="#0d88d0" d="M 463.5,111.5 C 470.202,111.336 476.869,111.669 483.5,112.5C 483.5,115.5 483.5,118.5 483.5,121.5C 477.183,120.906 470.849,120.406 464.5,120C 463.572,119.612 462.905,118.945 462.5,118C 463.287,115.901 463.62,113.734 463.5,111.5 Z"/></g>
<g><path style="opacity:0.844" fill="#0d88d0" d="M 394.5,116.5 C 396.144,116.286 397.644,116.62 399,117.5C 399.226,120.095 399.726,122.595 400.5,125C 393.256,127.116 385.923,128.45 378.5,129C 379.167,126.333 379.833,123.667 380.5,121C 385.274,119.481 389.941,117.981 394.5,116.5 Z"/></g>
<g><path style="opacity:0.915" fill="#0d88d0" d="M 439.5,121.5 C 445.823,121.161 451.49,122.828 456.5,126.5C 457.098,127.795 457.598,129.128 458,130.5C 458.5,137.826 458.666,145.159 458.5,152.5C 452.196,153.26 445.863,153.593 439.5,153.5C 439.664,146.798 439.331,140.131 438.5,133.5C 435.482,133.335 432.482,133.502 429.5,134C 429,134.5 428.5,135 428,135.5C 427.294,141.87 427.461,148.203 428.5,154.5C 422.49,155.727 416.49,156.06 410.5,155.5C 408.189,145.946 406.523,136.28 405.5,126.5C 410.33,125.882 415.163,125.215 420,124.5C 421.813,124.827 423.48,125.493 425,126.5C 429.846,124.497 434.679,122.83 439.5,121.5 Z"/></g>
<g><path style="opacity:0.914" fill="#0d88d0" d="M 462.5,122.5 C 469.569,122.446 476.569,123.112 483.5,124.5C 482.431,134.521 481.097,144.521 479.5,154.5C 473.635,153.854 467.802,153.187 462,152.5C 462.423,142.559 462.589,132.559 462.5,122.5 Z"/></g>
<g><path style="opacity:0.92" fill="#1289d0" d="M 487.5,124.5 C 492.196,124.671 496.863,125.171 501.5,126C 505.996,129.572 510.996,130.405 516.5,128.5C 522.75,128.648 528.417,130.481 533.5,134C 534.701,134.903 535.535,136.069 536,137.5C 536.333,141.167 536.667,144.833 537,148.5C 538.077,145.087 540.244,142.587 543.5,141C 547.406,139.566 551.406,139.233 555.5,140C 567.673,145.918 580.006,151.585 592.5,157C 592.957,157.414 593.291,157.914 593.5,158.5C 588.382,169.243 582.382,179.41 575.5,189C 559.721,189.692 545.888,184.859 534,174.5C 532.663,170.974 532.163,167.308 532.5,163.5C 536.362,164.428 540.029,165.928 543.5,168C 548.094,171.546 552.927,174.712 558,177.5C 560.707,176.795 562.874,175.295 564.5,173C 552.823,172.681 543.656,167.847 537,158.5C 536.667,155.5 536.333,152.5 536,149.5C 534.459,154.625 532.626,159.625 530.5,164.5C 525.172,163.001 519.839,161.501 514.5,160C 513.978,159.439 513.645,158.772 513.5,158C 514.911,152.855 516.245,147.688 517.5,142.5C 517.392,141.558 517.059,140.725 516.5,140C 512.881,137.681 509.381,137.515 506,139.5C 503.872,144.975 502.705,150.642 502.5,156.5C 495.953,156.558 489.619,155.558 483.5,153.5C 484.755,143.794 486.088,134.127 487.5,124.5 Z M 559.5,150.5 C 563.032,151.853 566.199,153.853 569,156.5C 570.69,161.416 569.023,164.416 564,165.5C 553.695,162.923 552.195,157.923 559.5,150.5 Z"/></g>
<g><path style="opacity:0.907" fill="#0d88d0" d="M 398.5,127.5 C 399.5,127.5 400.5,127.5 401.5,127.5C 403.334,137.492 404.834,147.492 406,157.5C 400.288,159.276 394.455,160.61 388.5,161.5C 386.164,151.494 383.831,141.494 381.5,131.5C 387.386,130.61 393.053,129.277 398.5,127.5 Z"/></g>
<g><path style="opacity:0.955" fill="#da0605" d="M 733.5,127.5 C 734.552,127.351 735.552,127.517 736.5,128C 745.581,136.411 753.915,145.411 761.5,155C 751.988,179.913 741.155,204.08 729,227.5C 747.501,211.923 766.167,196.59 785,181.5C 792.279,189.239 798.446,197.739 803.5,207C 799.057,222.623 794.557,238.123 790,253.5C 800.498,246.583 811.165,239.916 822,233.5C 827.167,242.5 832.333,251.5 837.5,260.5C 814.345,273.914 790.678,286.581 766.5,298.5C 761.543,291.428 757.21,283.928 753.5,276C 759.495,261.345 764.661,246.512 769,231.5C 759,238.833 749,246.167 739,253.5C 727.771,239.942 716.938,226.109 706.5,212C 709.067,208.045 710.9,203.878 712,199.5C 705.303,192.468 698.303,185.802 691,179.5C 687.25,181.959 683.417,184.292 679.5,186.5C 672.475,180.471 665.475,174.471 658.5,168.5C 682.437,153.029 707.437,139.362 733.5,127.5 Z M 710.5,169.5 C 710.833,168.833 711.167,168.167 711.5,167.5C 718.582,163.541 725.916,160.374 733.5,158C 730.146,165.877 726.646,173.71 723,181.5C 718.964,177.296 714.798,173.296 710.5,169.5 Z"/></g>
<g><path style="opacity:0.905" fill="#0d88d0" d="M 338.5,134.5 C 339.675,134.281 340.675,134.614 341.5,135.5C 342.975,139.261 344.642,142.927 346.5,146.5C 354.843,137.662 364.843,134.828 376.5,138C 378.377,140.251 379.877,142.751 381,145.5C 382.517,151.227 383.85,156.894 385,162.5C 379.555,164.593 374.055,166.593 368.5,168.5C 365.839,162.191 363.173,155.858 360.5,149.5C 355.975,149.924 352.642,152.09 350.5,156C 352.13,160.552 353.964,165.052 356,169.5C 356.781,170.944 356.614,172.277 355.5,173.5C 350.585,176.027 345.585,178.36 340.5,180.5C 338.413,177.327 336.579,173.994 335,170.5C 334.703,177.594 331.869,183.427 326.5,188C 317.909,195.464 308.242,201.13 297.5,205C 291.825,205.665 286.491,204.665 281.5,202C 286.5,197.667 291.5,193.333 296.5,189C 301.692,190.124 306.692,189.457 311.5,187C 314.024,185.117 315.358,182.617 315.5,179.5C 304.076,183.624 292.576,187.624 281,191.5C 274.303,190.143 271.637,186.143 273,179.5C 281.667,163.897 294.834,154.23 312.5,150.5C 316.969,151.2 321.303,152.367 325.5,154C 320.111,158.389 314.444,162.389 308.5,166C 313.401,165.031 318.401,164.198 323.5,163.5C 326.861,163.112 329.694,164.112 332,166.5C 329.109,158.708 325.609,151.041 321.5,143.5C 327.035,140.233 332.702,137.233 338.5,134.5 Z M 298.5,165.5 C 301.097,165.643 303.431,166.477 305.5,168C 301.09,170.69 296.423,172.357 291.5,173C 293.431,170.054 295.764,167.554 298.5,165.5 Z"/></g>
<g><path style="opacity:0.043" fill="#f7bbba" d="M 711.5,167.5 C 711.167,168.167 710.833,168.833 710.5,169.5C 709.243,168.377 709.576,167.711 711.5,167.5 Z"/></g>
<g><path style="opacity:0.942" fill="#d90403" d="M 132.5,188.5 C 138.866,188.439 144.866,189.772 150.5,192.5C 143.38,201.242 136.38,210.076 129.5,219C 121.037,216.733 115.037,219.566 111.5,227.5C 112.761,230.264 114.595,232.597 117,234.5C 123.883,227.649 131.05,221.149 138.5,215C 147.242,207.752 157.242,204.752 168.5,206C 180.711,211.577 185.544,221.077 183,234.5C 177.209,253.288 166.375,268.454 150.5,280C 141.016,283.485 131.683,283.318 122.5,279.5C 127.12,270.423 132.12,261.59 137.5,253C 140.551,253.29 143.551,254.123 146.5,255.5C 153.421,253.414 157.754,248.914 159.5,242C 158.167,236.667 154.834,234.667 149.5,236C 141.538,242.294 133.871,248.96 126.5,256C 120.549,260.89 113.716,263.723 106,264.5C 97.2389,263.076 91.5722,258.076 89,249.5C 88.6686,235.814 92.6686,223.481 101,212.5C 109.021,200.942 119.521,192.942 132.5,188.5 Z"/></g>
<g><path style="opacity:0.984" fill="#000000" d="M 363.5,218.5 C 392.471,218.303 406.304,232.637 405,261.5C 401.77,274.398 393.936,283.231 381.5,288C 369.523,291.028 357.523,293.861 345.5,296.5C 351.516,317.037 354.182,338.037 353.5,359.5C 372.684,356.63 391.684,352.797 410.5,348C 433.257,347.46 447.09,358.293 452,380.5C 453.579,396.507 447.746,409.007 434.5,418C 425.379,421.615 416.046,424.615 406.5,427C 392.475,429.772 378.475,432.605 364.5,435.5C 366.932,450.164 369.432,464.83 372,479.5C 372.589,498.935 374.256,518.268 377,537.5C 377.691,553.675 377.525,569.842 376.5,586C 376.612,592.676 377.779,599.176 380,605.5C 380.144,627.507 379.644,649.507 378.5,671.5C 378.667,675.167 378.833,678.833 379,682.5C 386.664,701.265 383.164,717.431 368.5,731C 348.981,742.629 331.481,740.129 316,723.5C 311.158,713.643 307.491,703.31 305,692.5C 305.121,668.924 305.955,645.424 307.5,622C 305.021,615.223 303.355,608.223 302.5,601C 306.112,572.42 305.778,543.92 301.5,515.5C 301.905,510.113 302.572,504.779 303.5,499.5C 301.062,484.928 299.228,470.261 298,455.5C 296.991,454.342 295.658,453.675 294,453.5C 285.84,454.899 277.673,456.232 269.5,457.5C 265.173,456.749 260.84,456.583 256.5,457C 242.262,461.924 227.596,463.924 212.5,463C 199.554,459.363 188.721,452.53 180,442.5C 174.179,425.961 178.679,413.128 193.5,404C 209.421,397.471 225.421,391.137 241.5,385C 246.783,383.246 252.117,383.08 257.5,384.5C 269.208,382.323 280.875,379.989 292.5,377.5C 291.816,358.907 293.15,340.407 296.5,322C 295.915,315.476 295.248,308.976 294.5,302.5C 274.214,305.415 253.88,305.915 233.5,304C 224.071,301 219.071,294.5 218.5,284.5C 221.123,271.421 226.79,259.921 235.5,250C 237.888,248.139 240.554,246.806 243.5,246C 271.861,240.128 300.195,234.128 328.5,228C 340.41,225.275 352.077,222.108 363.5,218.5 Z"/></g>
<g><path style="opacity:0.983" fill="#000000" d="M 572.5,230.5 C 581.513,229.758 589.013,232.758 595,239.5C 598.451,242.956 601.118,246.956 603,251.5C 604.02,257.307 604.853,263.14 605.5,269C 604.386,277.569 602.886,286.069 601,294.5C 600.667,303.833 600.333,313.167 600,322.5C 597.892,330.373 596.559,338.373 596,346.5C 594.204,409.568 591.037,472.568 586.5,535.5C 588.808,552.443 590.642,569.443 592,586.5C 613.261,568.618 637.428,556.118 664.5,549C 658.386,537.688 657.052,525.855 660.5,513.5C 655.396,501.09 654.062,488.256 656.5,475C 656.226,464.264 655.226,453.597 653.5,443C 654.541,429.35 654.541,415.683 653.5,402C 653.564,392.784 654.231,383.618 655.5,374.5C 650.941,361.141 654.941,351.641 667.5,346C 677.864,345.766 686.031,349.932 692,358.5C 697.842,368.183 703.176,378.183 708,388.5C 717.618,417.926 723.785,448.093 726.5,479C 725.453,486.777 726.619,494.277 730,501.5C 730.224,509.543 730.891,517.543 732,525.5C 735.149,537.464 739.149,549.13 744,560.5C 747.89,576.956 749.557,593.623 749,610.5C 742.214,631.653 727.714,640.819 705.5,638C 700.349,637.09 695.682,635.09 691.5,632C 687.954,628.118 684.121,624.618 680,621.5C 665.228,625.47 651.728,631.97 639.5,641C 629.507,652.659 619.174,663.992 608.5,675C 597.44,683.058 586.107,690.725 574.5,698C 562.763,703.439 550.43,705.439 537.5,704C 533.456,703.144 529.789,701.478 526.5,699C 522,693.167 516.833,688 511,683.5C 507.727,678.233 507.727,672.9 511,667.5C 514.158,664.92 517.492,662.587 521,660.5C 522.893,657.382 524.226,654.049 525,650.5C 525.667,641.833 525.667,633.167 525,624.5C 523.394,597.146 521.561,569.813 519.5,542.5C 526.443,472.181 533.276,401.848 540,331.5C 541.19,324.595 543.19,317.929 546,311.5C 547.422,301.787 549.089,292.121 551,282.5C 554.095,275.548 556.595,268.381 558.5,261C 553.913,246.351 558.58,236.184 572.5,230.5 Z"/></g>
<g><path style="opacity:0.941" fill="#d90403" d="M 75.5,255.5 C 81.214,258.35 86.5474,261.683 91.5,265.5C 83.9549,280.59 76.9549,295.923 70.5,311.5C 73.0795,313.759 75.9129,314.426 79,313.5C 84.3518,299.131 91.0185,285.464 99,272.5C 103.739,275.12 108.573,277.62 113.5,280C 114.022,280.561 114.355,281.228 114.5,282C 107.815,294.869 101.815,308.036 96.5,321.5C 100.629,323.879 104.963,325.879 109.5,327.5C 115.333,312.167 122.5,297.5 131,283.5C 136.745,286.288 142.245,289.454 147.5,293C 135.332,314.841 125.499,337.674 118,361.5C 92.411,353.526 66.911,345.359 41.5,337C 50.0124,308.622 61.3457,281.456 75.5,255.5 Z"/></g>
<g><path style="opacity:0.947" fill="#d90403" d="M 841.5,271.5 C 847.084,280.332 851.918,289.666 856,299.5C 856.749,300.635 856.583,301.635 855.5,302.5C 830.928,312.371 806.428,322.371 782,332.5C 777.717,323.953 774.051,315.286 771,306.5C 794.638,294.931 818.138,283.264 841.5,271.5 Z"/></g>
<g><path style="opacity:0.955" fill="#da0504" d="M 858.5,310.5 C 859.75,310.577 860.583,311.244 861,312.5C 863.667,319.833 866.333,327.167 869,334.5C 871.139,340.052 872.472,345.718 873,351.5C 860.42,360.544 847.254,368.71 833.5,376C 849.804,377.775 866.137,379.275 882.5,380.5C 884.778,393.664 887.111,406.831 889.5,420C 889.167,420.833 888.833,421.667 888.5,422.5C 864.829,425.149 841.162,427.982 817.5,431C 843.163,437.61 868.163,446.11 892.5,456.5C 893.666,469.154 893.833,481.82 893,494.5C 866.557,505.592 839.39,514.592 811.5,521.5C 811.108,512.185 811.608,502.852 813,493.5C 817.048,492.321 821.048,490.988 825,489.5C 825.554,486.342 826.054,483.175 826.5,480C 825.639,473.194 825.306,466.361 825.5,459.5C 820.839,458.503 816.173,457.503 811.5,456.5C 810.486,441.207 808.486,426.041 805.5,411C 805.833,410.167 806.167,409.333 806.5,408.5C 823.543,405.779 840.543,402.779 857.5,399.5C 838.9,396.839 820.233,394.839 801.5,393.5C 799.839,387.203 798.672,380.869 798,374.5C 813.088,365.374 827.921,355.874 842.5,346C 825.527,350.662 808.527,355.496 791.5,360.5C 789.771,353.314 787.438,346.314 784.5,339.5C 784.833,339.167 785.167,338.833 785.5,338.5C 810.032,329.389 834.366,320.056 858.5,310.5 Z M 847.5,466.5 C 854.752,469.362 862.085,472.029 869.5,474.5C 869.833,475.167 870.167,475.833 870.5,476.5C 862.874,478.595 855.541,481.262 848.5,484.5C 847.184,481.913 846.517,478.913 846.5,475.5C 846.502,472.314 846.835,469.314 847.5,466.5 Z"/></g>
<g><path style="opacity:0.955" fill="#da0604" d="M 39.5,344.5 C 64.9295,351.087 90.2628,358.087 115.5,365.5C 115.588,373.252 114.421,380.918 112,388.5C 94.5168,384.753 77.0168,381.253 59.5,378C 75.6772,386.589 92.0105,394.922 108.5,403C 109.081,403.893 109.415,404.893 109.5,406C 108.463,411.796 107.796,417.629 107.5,423.5C 88.6967,426.245 70.0301,429.745 51.5,434C 69.8264,435.655 88.1597,437.155 106.5,438.5C 106.228,454.528 106.561,470.528 107.5,486.5C 102.649,487.263 98.3156,489.096 94.5,492C 95.7989,501.766 97.4655,511.433 99.5,521C 104.202,521.585 108.702,522.751 113,524.5C 114.839,533.187 116.673,541.854 118.5,550.5C 90.4259,546.652 62.7592,540.818 35.5,533C 34.3333,532.5 33.5,531.667 33,530.5C 30.4581,518.229 29.2915,505.896 29.5,493.5C 50.588,481.123 72.588,470.623 95.5,462C 72.5125,460.903 49.5125,460.403 26.5,460.5C 26.1674,446.151 26.5007,431.818 27.5,417.5C 42.7261,413.988 58.0594,410.988 73.5,408.5C 58.8829,401.525 44.5495,394.025 30.5,386C 33.304,372.148 36.304,358.315 39.5,344.5 Z M 73.5,499.5 C 74.8999,500.1 75.8999,501.1 76.5,502.5C 76.3227,506.234 76.6561,509.901 77.5,513.5C 77.5,514.5 77.5,515.5 77.5,516.5C 76.5,516.5 75.5,516.5 74.5,516.5C 67.2059,514.676 59.8726,512.843 52.5,511C 59.2732,506.616 66.2732,502.783 73.5,499.5 Z"/></g>
<g><path style="opacity:0.2" fill="#f5aaa8" d="M 869.5,474.5 C 872.46,475.032 872.793,475.699 870.5,476.5C 870.167,475.833 869.833,475.167 869.5,474.5 Z"/></g>
<g><path style="opacity:0.977" fill="#000000" d="M 442.5,477.5 C 449.78,477.253 456.446,479.087 462.5,483C 467.711,488.542 472.544,494.375 477,500.5C 485.127,526.96 490.794,553.96 494,581.5C 496.205,588.446 498.205,595.446 500,602.5C 500.751,607.572 500.418,612.572 499,617.5C 495.885,626.398 492.218,635.064 488,643.5C 474.147,659.705 457.647,662.871 438.5,653C 430.892,647.722 426.058,640.555 424,631.5C 423.213,623.091 423.713,614.757 425.5,606.5C 421.736,584.231 421.069,561.898 423.5,539.5C 422.524,525.504 422.024,511.504 422,497.5C 424.792,486.54 431.625,479.873 442.5,477.5 Z"/></g>
<g><path style="opacity:0.369" fill="#ea7270" d="M 847.5,466.5 C 846.835,469.314 846.502,472.314 846.5,475.5C 846.517,478.913 847.184,481.913 848.5,484.5C 847.791,485.404 846.791,485.737 845.5,485.5C 845.17,478.8 845.503,472.134 846.5,465.5C 847.107,465.624 847.44,465.957 847.5,466.5 Z"/></g>
<g><path style="opacity:0.978" fill="#000000" d="M 205.5,493.5 C 219.626,491.142 230.126,496.142 237,508.5C 239.641,528.089 245.308,546.756 254,564.5C 253.862,575.361 255.195,586.028 258,596.5C 263.333,611.167 268.667,625.833 274,640.5C 278.571,657.063 274.405,670.896 261.5,682C 246.833,690.667 232.167,690.667 217.5,682C 210.863,676.556 206.363,669.722 204,661.5C 200.449,644.962 196.116,628.629 191,612.5C 188.131,602.275 187.298,591.942 188.5,581.5C 183.377,558.237 183.21,534.903 188,511.5C 190.683,502.318 196.517,496.318 205.5,493.5 Z"/></g>
<g><path style="opacity:0.082" fill="#f7bebe" d="M 73.5,499.5 C 74.209,498.596 75.209,498.263 76.5,498.5C 76.5,499.833 76.5,501.167 76.5,502.5C 75.8999,501.1 74.8999,500.1 73.5,499.5 Z"/></g>
<g><path style="opacity:0.948" fill="#d90403" d="M 873.5,510.5 C 880.122,511.532 886.788,512.199 893.5,512.5C 890.852,545.053 885.186,577.053 876.5,608.5C 870.223,606.63 863.89,604.963 857.5,603.5C 859.85,593.433 862.517,583.433 865.5,573.5C 845.594,568.357 825.594,563.524 805.5,559C 804.978,558.439 804.645,557.772 804.5,557C 806.321,548.572 807.655,540.072 808.5,531.5C 829.126,534.883 849.793,537.717 870.5,540C 872.557,530.318 873.557,520.484 873.5,510.5 Z"/></g>
<g><path style="opacity:0.216" fill="#ed7f7c" d="M 77.5,513.5 C 78.4345,514.568 78.7678,515.901 78.5,517.5C 76.901,517.768 75.5676,517.434 74.5,516.5C 75.5,516.5 76.5,516.5 77.5,516.5C 77.5,515.5 77.5,514.5 77.5,513.5 Z"/></g>
<g><path style="opacity:0.943" fill="#d90403" d="M 103.5,550.5 C 105.655,550.372 107.655,550.872 109.5,552C 127.295,569.423 136.461,590.59 137,615.5C 131.76,637.072 118.093,649.072 96,651.5C 82.2385,650.954 71.5719,644.954 64,633.5C 52.2434,616.142 47.5767,597.142 50,576.5C 52.8599,570.635 56.8599,565.635 62,561.5C 66.1942,570.417 70.1942,579.417 74,588.5C 74.5516,591.419 73.8849,594.086 72,596.5C 70.3848,615.557 78.8848,623.39 97.5,620C 114.924,614.715 119.758,603.882 112,587.5C 109.872,584.37 107.372,581.537 104.5,579C 102.5,578.333 100.5,578.333 98.5,579C 101.001,585.003 103.001,591.169 104.5,597.5C 98.4848,599.178 92.4848,600.845 86.5,602.5C 81.1553,587.799 76.822,572.799 73.5,557.5C 83.6093,555.137 93.6093,552.804 103.5,550.5 Z"/></g>
<g><path style="opacity:0.948" fill="#d90403" d="M 796.5,585.5 C 823.148,593.105 849.481,601.605 875.5,611C 871.72,621.676 867.554,632.176 863,642.5C 837.857,632.065 812.69,621.731 787.5,611.5C 790.906,602.948 793.906,594.281 796.5,585.5 Z"/></g>
<g><path style="opacity:0.967" fill="#da0d07" d="M 800.5,627.5 C 839.061,628.992 853.561,648.326 844,685.5C 837.479,701.678 826.979,714.512 812.5,724C 787.46,733.233 768.627,726.066 756,702.5C 751.205,686.129 753.539,670.796 763,656.5C 768.068,646.765 775.234,638.932 784.5,633C 789.715,630.429 795.048,628.596 800.5,627.5 Z M 793.5,655.5 C 806.095,656.062 815.928,661.395 823,671.5C 825.567,683.865 821.067,692.698 809.5,698C 797.315,698.827 787.482,694.327 780,684.5C 775.706,675.278 777.206,667.112 784.5,660C 787.324,657.921 790.324,656.421 793.5,655.5 Z"/></g>
<g><path style="opacity:0.957" fill="#d90403" d="M 734.5,699.5 C 756.305,715.813 777.639,732.646 798.5,750C 791.552,758.618 784.219,766.952 776.5,775C 758.141,775.023 739.807,774.689 721.5,774C 730.282,783.071 738.949,792.238 747.5,801.5C 738.441,810.225 728.774,818.225 718.5,825.5C 701.28,805.113 684.613,784.28 668.5,763C 675.144,756.698 682.144,750.698 689.5,745C 707.519,745.305 725.519,745.972 743.5,747C 733.692,739.025 724.358,730.525 715.5,721.5C 721.856,714.147 728.189,706.814 734.5,699.5 Z"/></g>
<g><path style="opacity:0.942" fill="#d90403" d="M 214.5,739.5 C 219.844,739.334 225.177,739.501 230.5,740C 248.627,746.462 261.127,758.628 268,776.5C 271.173,793.141 267.173,807.808 256,820.5C 247.281,829.308 236.781,832.475 224.5,830C 204.227,824.728 189.727,812.561 181,793.5C 178.767,784.921 179.267,776.587 182.5,768.5C 190.133,772.969 197.633,777.635 205,782.5C 205.333,786.833 205.667,791.167 206,795.5C 211.073,805.191 218.573,807.691 228.5,803C 235.203,797.095 240.036,789.928 243,781.5C 244.301,771.446 239.968,765.113 230,762.5C 224.874,763.997 220.04,765.831 215.5,768C 210.458,760.752 205.791,753.252 201.5,745.5C 205.501,742.725 209.834,740.725 214.5,739.5 Z"/></g>
<g><path style="opacity:0.918" fill="#0d88d0" d="M 558.5,742.5 C 565.584,742.879 571.917,745.212 577.5,749.5C 571.834,753.669 565.834,757.335 559.5,760.5C 549.436,756.352 541.936,759.019 537,768.5C 535.718,777.625 539.551,782.958 548.5,784.5C 555.295,783.848 561.295,781.348 566.5,777C 565.833,776.833 565.167,776.667 564.5,776.5C 560.879,777.882 557.212,778.715 553.5,779C 552.073,775.556 550.74,772.056 549.5,768.5C 559.772,764.463 569.939,760.13 580,755.5C 583.991,761.84 586.991,768.507 589,775.5C 572.277,794.963 551.444,801.797 526.5,796C 514.918,786.963 512.418,775.797 519,762.5C 521.883,757.95 525.716,754.45 530.5,752C 539.571,747.699 548.905,744.532 558.5,742.5 Z"/></g>
<g><path style="opacity:0.937" fill="#158ad0" d="M 411.5,750.5 C 418.945,751.656 426.279,753.322 433.5,755.5C 438.553,773.162 444.887,790.328 452.5,807C 444.124,806.736 435.79,805.736 427.5,804C 426.594,801.553 425.761,799.053 425,796.5C 417.838,794.042 410.505,792.042 403,790.5C 400.311,792.53 397.644,794.53 395,796.5C 387.239,794.524 379.739,791.858 372.5,788.5C 386.183,776.483 399.183,763.816 411.5,750.5 Z M 418.5,767.5 C 420.012,772.192 421.345,777.025 422.5,782C 418.345,782.13 414.345,781.296 410.5,779.5C 413.177,775.471 415.844,771.471 418.5,767.5 Z"/></g>
<g><path style="opacity:0.918" fill="#0d88d0" d="M 476.5,757.5 C 489.865,755.797 501.699,759.13 512,767.5C 513.543,769.089 513.543,770.423 512,771.5C 506.851,773.245 501.685,774.912 496.5,776.5C 490.328,770.166 483.328,769 475.5,773C 470.804,779.131 470.304,785.631 474,792.5C 483.124,798.84 490.624,797.174 496.5,787.5C 503.216,786.504 509.883,786.838 516.5,788.5C 513.364,800.319 505.364,806.819 492.5,808C 480.576,809.899 469.243,808.232 458.5,803C 448.697,793.618 446.864,782.784 453,770.5C 454.833,767.333 457.333,764.833 460.5,763C 465.846,760.83 471.179,758.997 476.5,757.5 Z"/></g>
<g><path style="opacity:0.945" fill="#d90403" d="M 287.5,779.5 C 295.968,783.901 304.301,788.568 312.5,793.5C 300.817,817.531 289.151,841.531 277.5,865.5C 267.173,860.971 257.506,855.471 248.5,849C 261.632,825.903 274.632,802.736 287.5,779.5 Z"/></g>
<g><path style="opacity:0.949" fill="#d90403" d="M 317.5,796.5 C 325.455,798.313 332.789,801.48 339.5,806C 333.235,822.137 327.402,838.303 322,854.5C 333.274,840.559 343.774,826.059 353.5,811C 359.57,811.682 365.57,813.016 371.5,815C 372.743,816.87 373.41,819.036 373.5,821.5C 374.153,838.203 375.32,854.87 377,871.5C 381.653,854.408 385.486,837.074 388.5,819.5C 396.475,820.687 404.475,821.687 412.5,822.5C 408.833,849.167 405.167,875.833 401.5,902.5C 386.323,900.804 371.323,898.137 356.5,894.5C 355.804,878.496 354.97,862.496 354,846.5C 345.555,859.277 336.722,871.777 327.5,884C 322.398,883.811 317.398,882.811 312.5,881C 303.352,877.258 294.352,873.258 285.5,869C 296.582,845.003 307.249,820.837 317.5,796.5 Z"/></g>
<g><path style="opacity:0.951" fill="#d90403" d="M 575.5,803.5 C 592.412,801.083 606.912,805.75 619,817.5C 632.105,837.214 629.938,855.048 612.5,871C 589.666,888.378 564.333,894.044 536.5,888C 531.367,885.346 526.867,881.846 523,877.5C 522.383,876.551 522.549,875.718 523.5,875C 533.539,871.265 543.539,867.431 553.5,863.5C 565.592,873.427 576.759,872.427 587,860.5C 591.164,847.676 588.33,836.509 578.5,827C 568.296,823.259 559.463,825.426 552,833.5C 550.051,837.629 548.884,841.963 548.5,846.5C 537.833,846.5 527.167,846.5 516.5,846.5C 520.769,827.395 532.435,815.228 551.5,810C 559.542,807.492 567.542,805.325 575.5,803.5 Z"/></g>
<g><path style="opacity:0.969" fill="#da0c07" d="M 463.5,823.5 C 477.206,823.207 490.206,826.041 502.5,832C 517.441,844.243 522.274,859.743 517,878.5C 510.684,892.086 500.184,900.586 485.5,904C 467.273,909.071 449.273,908.405 431.5,902C 414.174,893.514 407.341,879.681 411,860.5C 414.548,843.287 424.714,832.12 441.5,827C 448.93,825.501 456.263,824.334 463.5,823.5 Z M 480.5,850.5 C 480.932,851.71 481.599,852.71 482.5,853.5C 485.274,861.9 485.107,870.233 482,878.5C 474.866,887.58 465.699,890.413 454.5,887C 448.562,885.395 445.062,881.562 444,875.5C 442.517,866.355 443.85,857.688 448,849.5C 456.624,841.689 466.124,840.523 476.5,846C 478.041,847.371 479.375,848.871 480.5,850.5 Z"/></g>
<g><path style="opacity:0.792" fill="#f79181" d="M 480.5,850.5 C 482.048,850.821 482.715,851.821 482.5,853.5C 481.599,852.71 480.932,851.71 480.5,850.5 Z"/></g>
</svg>
